# Blender v2.93.4 OBJ File: 'CeSIUM_Logo.blend'
# www.blender.org
mtllib CeSIUM_Logo.mtl
o Cube.001_Cube.023
v 1.000000 1.000000 -1.000000
v 1.000000 -1.000000 -1.000000
v 1.000000 1.000000 1.000000
v 1.000000 -1.000000 1.000000
v -1.000000 1.000000 -1.000000
v -1.000000 -1.000000 -1.000000
v -1.000000 1.000000 1.000000
v -1.000000 -1.000000 1.000000
v -4.400000 -1.000000 1.000000
v -4.400000 1.000000 1.000000
v -4.400000 1.000000 -1.000000
v -4.400000 -1.000000 -1.000000
v 1.000000 3.200000 -1.000000
v -1.000000 3.200000 -1.000000
v -1.000000 3.200000 1.000000
v 1.000000 3.200000 1.000000
v 1.000000 1.000000 -1.000000
v -1.000000 1.000000 -1.000000
v -1.000000 3.200000 -1.000000
v 1.000000 3.200000 -1.000000
v 1.000000 1.220000 -1.000000
v -1.000000 1.220000 -1.000000
v -1.000000 1.220000 1.000000
v 1.000000 1.220000 1.000000
v 1.000000 1.220000 -1.000000
v -1.000000 1.220000 -1.000000
v 1.000000 1.220000 -3.200000
v -1.000000 1.220000 -3.200000
v -1.000000 3.200000 -3.200000
v 1.000000 3.200000 -3.200000
v -5.400000 -1.000000 1.000000
v -5.400000 1.000000 1.000000
v -5.400000 1.000000 -1.000000
v -5.400000 -1.000000 -1.000000
vt 0.625000 0.500000
vt 0.875000 0.500000
vt 0.875000 0.750000
vt 0.625000 0.750000
vt 0.375000 0.750000
vt 0.625000 0.750000
vt 0.625000 1.000000
vt 0.375000 1.000000
vt 0.375000 0.000000
vt 0.625000 0.000000
vt 0.625000 0.250000
vt 0.375000 0.250000
vt 0.125000 0.500000
vt 0.375000 0.500000
vt 0.125000 0.750000
vt 0.625000 0.500000
vt 0.375000 0.250000
vt 0.625000 0.250000
vt 0.375000 0.000000
vt 0.625000 0.000000
vt 0.625000 0.000000
vt 0.375000 0.000000
vt 0.625000 0.250000
vt 0.375000 0.250000
vt 0.625000 0.500000
vt 0.875000 0.500000
vt 0.875000 0.500000
vt 0.625000 0.500000
vt 0.875000 0.500000
vt 0.875000 0.750000
vt 0.625000 0.750000
vt 0.625000 0.500000
vt 0.875000 0.500000
vt 0.875000 0.500000
vt 0.625000 0.500000
vt 0.875000 0.500000
vt 0.875000 0.500000
vt 0.625000 0.500000
vt 0.625000 0.500000
vt 0.875000 0.750000
vn 0.0000 1.0000 0.0000
vn 0.0000 0.0000 1.0000
vn -1.0000 0.0000 0.0000
vn 0.0000 -1.0000 0.0000
vn 1.0000 0.0000 0.0000
vn 0.0000 0.0000 -1.0000
usemtl Material.023
s off
f 13/1/1 14/2/1 15/3/1 16/4/1
f 4/5/2 3/6/2 7/7/2 8/8/2
f 31/9/3 32/10/3 33/11/3 34/12/3
f 6/13/4 2/14/4 4/5/4 8/15/4
f 2/14/5 1/16/5 3/6/5 4/5/5
f 6/17/6 5/18/6 1/16/6 2/14/6
f 8/19/2 7/20/2 10/21/2 9/22/2
f 7/20/1 5/18/1 11/23/1 10/21/1
f 5/18/6 6/17/6 12/24/6 11/23/6
f 6/17/4 8/19/4 9/22/4 12/24/4
f 27/25/6 28/26/6 29/27/6 30/28/6
f 22/29/3 23/30/3 15/3/3 14/2/3
f 23/30/2 24/31/2 16/4/2 15/3/2
f 24/31/5 21/32/5 13/1/5 16/4/5
f 1/16/2 5/33/2 18/34/2 17/35/2
f 22/29/2 14/2/2 19/36/2 26/37/2
f 14/2/2 13/1/2 20/38/2 19/36/2
f 21/32/2 1/16/2 17/35/2 25/39/2
f 13/1/2 21/32/2 25/39/2 20/38/2
f 5/33/2 22/29/2 26/37/2 18/34/2
f 3/6/5 1/16/5 21/32/5 24/31/5
f 7/40/2 3/6/2 24/31/2 23/30/2
f 5/33/3 7/40/3 23/30/3 22/29/3
f 17/35/6 18/34/6 26/37/6 25/39/6
f 25/39/4 26/37/4 28/26/4 27/25/4
f 26/37/3 19/36/3 29/27/3 28/26/3
f 19/36/1 20/38/1 30/28/1 29/27/1
f 20/38/5 25/39/5 27/25/5 30/28/5
f 9/22/2 10/21/2 32/10/2 31/9/2
f 10/21/1 11/23/1 33/11/1 32/10/1
f 11/23/6 12/24/6 34/12/6 33/11/6
f 12/24/4 9/22/4 31/9/4 34/12/4
o Cube.002_Cube.037
v 1.000000 1.000000 -5.400000
v 1.000000 -1.000000 -5.400000
v 1.000000 1.000000 -1.200000
v 1.000000 -1.000000 -1.200000
v -1.000000 1.000000 -5.400000
v -1.000000 -1.000000 -5.400000
v -1.000000 1.000000 -1.200000
v -1.000000 -1.000000 -1.200000
vt 0.625000 0.500000
vt 0.875000 0.500000
vt 0.875000 0.750000
vt 0.625000 0.750000
vt 0.375000 0.750000
vt 0.625000 1.000000
vt 0.375000 1.000000
vt 0.375000 0.000000
vt 0.625000 0.000000
vt 0.625000 0.250000
vt 0.375000 0.250000
vt 0.125000 0.500000
vt 0.375000 0.500000
vt 0.125000 0.750000
vn 0.0000 1.0000 0.0000
vn 0.0000 0.0000 1.0000
vn -1.0000 0.0000 0.0000
vn 0.0000 -1.0000 0.0000
vn 1.0000 0.0000 0.0000
vn 0.0000 0.0000 -1.0000
usemtl Material.037
s off
f 35/41/7 39/42/7 41/43/7 37/44/7
f 38/45/8 37/44/8 41/46/8 42/47/8
f 42/48/9 41/49/9 39/50/9 40/51/9
f 40/52/10 36/53/10 38/45/10 42/54/10
f 36/53/11 35/41/11 37/44/11 38/45/11
f 40/51/12 39/50/12 35/41/12 36/53/12
o Cube.003_Cube.038
v -1.200000 3.200000 -3.200000
v -1.200000 1.200000 -3.200000
v -1.200000 3.200000 -1.200000
v -1.200000 1.200000 -1.200000
v -3.200000 3.200000 -3.200000
v -3.200000 1.200000 -3.200000
v -3.200000 3.200000 -1.200000
v -3.200000 1.200000 -1.200000
v -3.200000 -1.000000 -3.200000
v -1.200000 -1.000000 -3.200000
v -1.200000 -1.000000 -1.200000
v -3.200000 -1.000000 -1.200000
vt 0.625000 0.500000
vt 0.875000 0.500000
vt 0.875000 0.750000
vt 0.625000 0.750000
vt 0.375000 0.750000
vt 0.625000 1.000000
vt 0.375000 1.000000
vt 0.375000 0.000000
vt 0.625000 0.000000
vt 0.625000 0.250000
vt 0.375000 0.250000
vt 0.125000 0.500000
vt 0.375000 0.500000
vt 0.375000 0.750000
vt 0.125000 0.750000
vt 0.375000 0.500000
vt 0.125000 0.500000
vt 0.125000 0.750000
vn 0.0000 1.0000 0.0000
vn 0.0000 0.0000 1.0000
vn -1.0000 0.0000 0.0000
vn 0.0000 -1.0000 0.0000
vn 1.0000 0.0000 0.0000
vn 0.0000 0.0000 -1.0000
usemtl Material.038
s off
f 43/55/13 47/56/13 49/57/13 45/58/13
f 46/59/14 45/58/14 49/60/14 50/61/14
f 50/62/15 49/63/15 47/64/15 48/65/15
f 51/66/16 52/67/16 53/68/16 54/69/16
f 44/70/17 43/55/17 45/58/17 46/59/17
f 48/65/18 47/64/18 43/55/18 44/70/18
f 48/71/18 44/70/18 52/67/18 51/66/18
f 44/70/17 46/59/17 53/68/17 52/67/17
f 46/59/14 50/72/14 54/69/14 53/68/14
f 50/72/15 48/71/15 51/66/15 54/69/15
o Cube.004_Cube.040
v -1.200000 3.200000 -5.400000
v -1.200000 1.200000 -5.400000
v -1.200000 3.200000 -3.400000
v -1.200000 1.200000 -3.400000
v -3.200000 3.200000 -5.400000
v -3.200000 1.200000 -5.400000
v -3.200000 3.200000 -3.400000
v -3.200000 1.200000 -3.400000
v -3.200000 -1.000000 -5.400000
v -1.200000 -1.000000 -5.400000
v -1.200000 -1.000000 -3.400000
v -3.200000 -1.000000 -3.400000
v -3.200000 0.980000 -5.400000
v -1.200000 0.980000 -5.400000
v -1.200000 0.980000 -3.400000
v -3.200000 0.980000 -3.400000
v -5.400000 0.980000 -3.400000
v -5.400000 0.980000 -5.400000
v -5.400000 -1.000000 -5.400000
v -5.400000 -1.000000 -3.400000
v -5.400000 0.980000 -3.400000
v -5.400000 0.980000 -5.400000
v -5.400000 -1.000000 -5.400000
v -5.400000 -1.000000 -3.400000
v -3.420000 0.980000 -3.400000
v -3.420000 0.980000 -5.400000
v -3.420000 -1.000000 -5.400000
v -3.420000 -1.000000 -3.400000
v -3.420000 -1.000000 -1.200000
v -3.420000 0.980000 -1.200000
v -5.400000 0.980000 -1.200000
v -5.400000 -1.000000 -1.200000
v -3.420000 -1.000000 -3.180000
v -3.420000 0.980000 -3.180000
v -5.400000 0.980000 -3.180000
v -5.400000 -1.000000 -3.180000
v -3.420000 3.180000 -3.180000
v -5.400000 3.180000 -3.180000
v -5.400000 3.180000 -1.200000
v -3.420000 3.180000 -1.200000
vt 0.625000 0.500000
vt 0.875000 0.500000
vt 0.875000 0.750000
vt 0.625000 0.750000
vt 0.375000 0.750000
vt 0.625000 1.000000
vt 0.375000 1.000000
vt 0.375000 0.000000
vt 0.625000 0.000000
vt 0.625000 0.250000
vt 0.375000 0.250000
vt 0.125000 0.500000
vt 0.375000 0.500000
vt 0.375000 0.750000
vt 0.125000 0.750000
vt 0.375000 0.500000
vt 0.125000 0.500000
vt 0.375000 0.500000
vt 0.375000 0.750000
vt 0.125000 0.750000
vt 0.125000 0.750000
vt 0.125000 0.500000
vt 0.125000 0.500000
vt 0.125000 0.750000
vt 0.125000 0.750000
vt 0.125000 0.500000
vt 0.125000 0.750000
vt 0.125000 0.500000
vt 0.125000 0.500000
vt 0.125000 0.750000
vt 0.125000 0.500000
vt 0.125000 0.500000
vt 0.125000 0.750000
vt 0.125000 0.750000
vt 0.125000 0.750000
vt 0.125000 0.750000
vt 0.125000 0.750000
vt 0.125000 0.750000
vt 0.125000 0.750000
vt 0.125000 0.750000
vt 0.125000 0.750000
vt 0.125000 0.750000
vt 0.125000 0.750000
vt 0.125000 0.750000
vt 0.125000 0.750000
vt 0.125000 0.750000
vn 0.0000 1.0000 0.0000
vn 0.0000 0.0000 1.0000
vn -1.0000 0.0000 0.0000
vn 0.0000 -1.0000 0.0000
vn 1.0000 0.0000 0.0000
vn 0.0000 0.0000 -1.0000
usemtl Material.040
s off
f 55/73/19 59/74/19 61/75/19 57/76/19
f 58/77/20 57/76/20 61/78/20 62/79/20
f 62/80/21 61/81/21 59/82/21 60/83/21
f 63/84/22 64/85/22 65/86/22 66/87/22
f 56/88/23 55/73/23 57/76/23 58/77/23
f 60/83/24 59/82/24 55/73/24 56/88/24
f 67/89/24 68/90/24 64/85/24 63/84/24
f 68/90/23 69/91/23 65/86/23 64/85/23
f 69/91/20 70/92/20 66/87/20 65/86/20
f 75/93/21 76/94/21 77/95/21 78/96/21
f 62/97/21 60/98/21 67/89/21 70/92/21
f 58/77/20 62/97/20 70/92/20 69/91/20
f 56/88/23 58/77/23 69/91/23 68/90/23
f 60/98/24 56/88/24 68/90/24 67/89/24
f 79/99/19 80/100/19 72/101/19 71/102/19
f 80/100/24 81/103/24 73/104/24 72/101/24
f 81/103/22 82/105/22 74/106/22 73/104/22
f 83/107/20 84/108/20 85/109/20 86/110/20
f 71/102/20 72/101/20 76/94/20 75/93/20
f 72/101/20 73/104/20 77/95/20 76/94/20
f 73/104/20 74/106/20 78/96/20 77/95/20
f 74/106/20 71/102/20 75/93/20 78/96/20
f 66/87/20 70/92/20 79/99/20 82/105/20
f 63/84/22 66/87/22 82/105/22 81/103/22
f 67/89/24 63/84/24 81/103/24 80/100/24
f 70/92/19 67/89/19 80/100/19 79/99/19
f 87/111/23 88/112/23 84/108/23 83/107/23
f 91/113/19 92/114/19 93/115/19 94/116/19
f 89/117/21 90/118/21 86/110/21 85/109/21
f 90/118/22 87/111/22 83/107/22 86/110/22
f 74/106/22 82/105/22 87/111/22 90/118/22
f 71/102/21 74/106/21 90/118/21 89/117/21
f 79/99/19 71/102/19 89/117/19 88/112/19
f 82/105/23 79/99/23 88/112/23 87/111/23
f 88/112/24 89/117/24 92/114/24 91/113/24
f 89/117/21 85/109/21 93/115/21 92/114/21
f 85/109/20 84/108/20 94/116/20 93/115/20
f 84/108/23 88/112/23 91/113/23 94/116/23
o Cube.005_Cube.043
v 1.000000 5.400000 -1.000000
v 1.000000 3.400000 -1.000000
v 1.000000 5.400000 1.000000
v 1.000000 3.400000 1.000000
v -1.000000 5.400000 -1.000000
v -1.000000 3.400000 -1.000000
v -1.000000 5.400000 1.000000
v -1.000000 3.400000 1.000000
v -1.000000 3.400000 -5.400000
v -1.000000 5.400000 -5.400000
v 1.000000 5.400000 -5.400000
v 1.000000 3.400000 -5.400000
v -0.631932 3.768068 -5.400000
v -0.631932 5.031932 -5.400000
v 0.631932 5.031932 -5.400000
v 0.631932 3.768068 -5.400000
v -3.200000 3.400000 1.000000
v -3.200000 5.400000 1.000000
v -3.200000 5.400000 -1.000000
v -3.200000 3.400000 -1.000000
v -1.000000 3.400000 -3.376000
v -1.000000 5.400000 -3.376000
v 1.000000 5.400000 -3.376000
v 1.000000 3.400000 -3.376000
v -5.400000 3.400000 -3.376000
v -5.400000 5.400000 -3.376000
v -5.400000 5.400000 -5.400000
v -5.400000 3.400000 -5.400000
v -3.376000 3.400000 -3.376000
v -3.376000 5.400000 -3.376000
v -3.376000 5.400000 -5.400000
v -3.376000 3.400000 -5.400000
v -3.376000 1.200000 -5.400000
v -3.376000 1.200000 -3.376000
v -5.400000 1.200000 -3.376000
v -5.400000 1.200000 -5.400000
vt 0.625000 0.500000
vt 0.875000 0.500000
vt 0.875000 0.750000
vt 0.625000 0.750000
vt 0.375000 0.750000
vt 0.625000 1.000000
vt 0.375000 1.000000
vt 0.375000 0.000000
vt 0.625000 0.000000
vt 0.625000 0.250000
vt 0.375000 0.250000
vt 0.125000 0.500000
vt 0.375000 0.500000
vt 0.125000 0.750000
vt 0.421009 0.296009
vt 0.578992 0.296009
vt 0.578992 0.453992
vt 0.421009 0.453992
vt 0.375000 0.250000
vt 0.625000 0.250000
vt 0.625000 0.250000
vt 0.375000 0.250000
vt 0.625000 0.250000
vt 0.625000 0.500000
vt 0.625000 0.500000
vt 0.625000 0.250000
vt 0.375000 0.500000
vt 0.375000 0.500000
vt 0.375000 0.250000
vt 0.375000 0.250000
vt 0.375000 0.000000
vt 0.625000 0.000000
vt 0.625000 0.250000
vt 0.375000 0.250000
vt 0.375000 0.250000
vt 0.625000 0.250000
vt 0.625000 0.250000
vt 0.375000 0.250000
vt 0.375000 0.250000
vt 0.375000 0.250000
vt 0.375000 0.250000
vt 0.375000 0.250000
vn 0.0000 1.0000 0.0000
vn 0.0000 0.0000 1.0000
vn -1.0000 0.0000 0.0000
vn 0.0000 -1.0000 0.0000
vn 1.0000 0.0000 0.0000
vn 0.0000 0.0000 -1.0000
usemtl Material.043
s off
f 95/119/25 99/120/25 101/121/25 97/122/25
f 98/123/26 97/122/26 101/124/26 102/125/26
f 111/126/27 112/127/27 113/128/27 114/129/27
f 100/130/28 96/131/28 98/123/28 102/132/28
f 96/131/29 95/119/29 97/122/29 98/123/29
f 107/133/30 108/134/30 109/135/30 110/136/30
f 119/137/27 120/138/27 121/139/27 122/140/27
f 116/141/25 117/142/25 105/143/25 104/144/25
f 117/142/29 118/145/29 106/146/29 105/143/29
f 118/145/28 115/147/28 103/148/28 106/146/28
f 103/148/30 104/144/30 108/134/30 107/133/30
f 104/144/30 105/143/30 109/135/30 108/134/30
f 105/143/30 106/146/30 110/136/30 109/135/30
f 106/146/30 103/148/30 107/133/30 110/136/30
f 102/149/26 101/150/26 112/127/26 111/126/26
f 101/150/25 99/151/25 113/128/25 112/127/25
f 99/151/30 100/152/30 114/129/30 113/128/30
f 100/152/28 102/149/28 111/126/28 114/129/28
f 96/131/28 100/152/28 115/147/28 118/145/28
f 95/119/29 96/131/29 118/145/29 117/142/29
f 99/151/25 95/119/25 117/142/25 116/141/25
f 100/152/27 99/151/27 116/141/27 115/147/27
f 123/153/26 124/154/26 120/138/26 119/137/26
f 124/154/25 125/155/25 121/139/25 120/138/25
f 125/155/30 126/156/30 122/140/30 121/139/30
f 127/157/28 128/158/28 129/159/28 130/160/28
f 103/148/28 115/147/28 123/153/28 126/156/28
f 104/144/30 103/148/30 126/156/30 125/155/30
f 116/141/25 104/144/25 125/155/25 124/154/25
f 115/147/26 116/141/26 124/154/26 123/153/26
f 126/156/29 123/153/29 128/158/29 127/157/29
f 123/153/26 119/137/26 129/159/26 128/158/26
f 119/137/27 122/140/27 130/160/27 129/159/27
f 122/140/30 126/156/30 127/157/30 130/160/30
o Cube.006_Cube.045
v -3.400000 5.400000 -1.000000
v -3.400000 3.400000 -1.000000
v -3.400000 5.400000 1.000000
v -3.400000 3.400000 1.000000
v -5.400000 5.400000 -1.000000
v -5.400000 3.400000 -1.000000
v -5.400000 5.400000 1.000000
v -5.400000 3.400000 1.000000
v -5.400000 1.180000 -1.000000
v -3.400000 1.180000 -1.000000
v -3.400000 1.180000 1.000000
v -5.400000 1.180000 1.000000
v -5.400000 3.178000 -1.000000
v -3.400000 3.178000 -1.000000
v -3.400000 3.178000 1.000000
v -5.400000 3.178000 1.000000
v -1.200000 3.178000 -1.000000
v -1.200000 3.178000 1.000000
v -1.200000 1.180000 1.000000
v -1.200000 1.180000 -1.000000
v -5.400000 3.400000 -3.200000
v -5.400000 5.400000 -3.200000
v -3.400000 5.400000 -3.200000
v -3.400000 3.400000 -3.200000
v -3.400000 3.600000 -1.000000
v -5.400000 3.600000 1.000000
v -3.400000 3.600000 1.000000
v -5.400000 3.600000 -1.000000
v -5.400000 3.600000 -3.200000
v -3.400000 3.600000 -3.200000
v -5.400000 3.400000 -1.220000
v -5.400000 5.400000 -1.220000
v -3.400000 5.400000 -1.220000
v -3.400000 3.400000 -1.220000
v -3.400000 3.600000 -1.220000
v -5.400000 3.600000 -1.220000
v -1.200000 5.400000 -1.220000
v -1.200000 3.600000 -1.220000
v -1.200000 3.600000 -3.200000
v -1.200000 5.400000 -3.200000
v -3.180000 5.400000 -1.220000
v -3.180000 3.600000 -1.220000
v -3.180000 3.600000 -3.200000
v -3.180000 5.400000 -3.200000
vt 0.625000 0.500000
vt 0.875000 0.500000
vt 0.875000 0.750000
vt 0.625000 0.750000
vt 0.400000 0.750000
vt 0.625000 1.000000
vt 0.400000 1.000000
vt 0.400000 0.000000
vt 0.625000 0.000000
vt 0.625000 0.250000
vt 0.400000 0.250000
vt 0.125000 0.500000
vt 0.375000 0.500000
vt 0.375000 0.750000
vt 0.125000 0.750000
vt 0.400000 0.500000
vt 0.400000 0.250000
vt 0.625000 0.250000
vt 0.625000 0.500000
vt 0.400000 0.500000
vt 0.125000 0.500000
vt 0.375000 0.500000
vt 0.375000 0.500000
vt 0.375000 0.750000
vt 0.375000 0.750000
vt 0.375000 0.500000
vt 0.375000 0.750000
vt 0.125000 0.750000
vt 0.125000 0.750000
vt 0.125000 0.500000
vt 0.375000 0.750000
vt 0.375000 0.500000
vt 0.400000 0.250000
vt 0.625000 0.250000
vt 0.625000 0.500000
vt 0.400000 0.500000
vt 0.375000 0.500000
vt 0.375000 0.500000
vt 0.375000 0.250000
vt 0.375000 0.250000
vt 0.625000 0.500000
vt 0.400000 0.500000
vt 0.400000 0.500000
vt 0.625000 0.500000
vt 0.375000 0.000000
vt 0.375000 0.250000
vt 0.375000 1.000000
vt 0.625000 0.500000
vt 0.400000 0.500000
vt 0.400000 0.500000
vt 0.625000 0.500000
vn 0.0000 1.0000 0.0000
vn 0.0000 0.0000 1.0000
vn -1.0000 0.0000 0.0000
vn 0.0000 -1.0000 0.0000
vn 1.0000 0.0000 0.0000
vn 0.0000 0.0000 -1.0000
usemtl Material.045
s off
f 131/161/31 135/162/31 137/163/31 133/164/31
f 157/165/32 133/164/32 137/166/32 156/167/32
f 156/168/33 137/169/33 135/170/33 158/171/33
f 139/172/34 140/173/34 141/174/34 142/175/34
f 155/176/35 131/161/35 133/164/35 157/165/35
f 159/177/36 152/178/36 153/179/36 160/180/36
f 143/181/36 144/182/36 140/173/36 139/172/36
f 147/183/35 148/184/35 149/185/35 150/186/35
f 145/187/32 146/188/32 142/175/32 141/174/32
f 146/188/33 143/181/33 139/172/33 142/175/33
f 138/189/33 136/190/33 143/181/33 146/188/33
f 134/191/32 138/189/32 146/188/32 145/187/32
f 132/192/35 134/191/35 145/187/35 144/182/35
f 136/190/36 132/192/36 144/182/36 143/181/36
f 144/182/31 145/187/31 148/184/31 147/183/31
f 145/187/32 141/174/32 149/185/32 148/184/32
f 141/174/34 140/173/34 150/186/34 149/185/34
f 140/173/36 144/182/36 147/183/36 150/186/36
f 166/193/33 162/194/33 152/178/33 159/177/33
f 162/194/31 163/195/31 153/179/31 152/178/31
f 165/196/35 164/197/35 154/198/35 160/180/35
f 164/197/34 161/199/34 151/200/34 154/198/34
f 167/201/35 168/202/35 169/203/35 170/204/35
f 161/199/33 166/193/33 159/177/33 151/200/33
f 151/200/36 159/177/36 160/180/36 154/198/36
f 132/192/35 155/176/35 157/165/35 134/191/35
f 138/205/33 156/168/33 158/171/33 136/206/33
f 134/191/32 157/165/32 156/167/32 138/207/32
f 136/206/33 158/171/33 166/193/33 161/199/33
f 131/161/35 155/176/35 165/196/35 163/195/35
f 132/192/34 136/206/34 161/199/34 164/197/34
f 155/176/35 132/192/35 164/197/35 165/196/35
f 135/170/31 131/161/31 163/195/31 162/194/31
f 158/171/33 135/170/33 162/194/33 166/193/33
f 171/208/32 172/209/32 168/202/32 167/201/32
f 172/209/34 173/210/34 169/203/34 168/202/34
f 173/210/36 174/211/36 170/204/36 169/203/36
f 174/211/31 171/208/31 167/201/31 170/204/31
f 153/179/31 163/195/31 171/208/31 174/211/31
f 160/180/36 153/179/36 174/211/36 173/210/36
f 165/196/34 160/180/34 173/210/34 172/209/34
f 163/195/32 165/196/32 172/209/32 171/208/32
